<svg width="400" height="401" viewBox="0 0 400 401" fill="none" xmlns="http://www.w3.org/2000/svg">
<g clip-path="url(#clip0_280_278)">
<path d="M381.193 141.448C393.578 141.448 400 134.567 400 122.182V69.2002C400 24.0167 376.835 0.851562 330.963 0.851562H277.982C265.597 0.851562 258.715 7.7323 258.715 19.8882C258.715 31.8149 265.597 38.6956 277.982 38.6956H329.587C350.458 38.6956 362.385 49.9341 362.385 71.7231V122.182C362.385 134.567 369.037 141.448 381.193 141.448ZM18.8073 141.448C31.1927 141.448 37.844 134.567 37.844 122.182V71.7231C37.844 49.9341 49.5413 38.6956 70.6422 38.6956H122.248C134.404 38.6956 141.284 31.8149 141.284 19.8882C141.284 7.7323 134.404 0.851562 122.248 0.851562H69.266C23.3945 0.851562 0 24.0167 0 69.2002V122.182C0 134.567 6.88073 141.448 18.8073 141.448ZM183.028 240.302H185.092C207.11 240.302 219.037 228.375 219.037 206.357V138.008C219.037 129.521 213.303 123.787 204.817 123.787C195.872 123.787 190.367 129.521 190.367 138.008V207.962C190.367 210.027 188.99 211.173 186.927 211.173H179.817C171.788 211.173 165.596 217.365 165.596 225.393C165.596 234.797 172.018 240.302 183.028 240.302ZM122.248 189.383C132.798 189.383 140.138 182.045 140.138 171.493V141.907C140.138 131.356 132.798 124.017 122.248 124.017C112.156 124.017 104.816 131.586 104.816 141.907V171.493C104.816 182.045 112.156 189.383 122.248 189.383ZM277.982 189.383C288.073 189.383 295.642 182.045 295.642 171.493V141.907C295.642 131.586 288.073 124.017 277.982 124.017C267.432 124.017 260.092 131.356 260.092 141.907V171.493C260.092 182.045 267.432 189.383 277.982 189.383ZM199.312 306.585C225.458 306.585 252.065 295.347 270.872 276.54C273.623 274.017 275 270.347 275 265.76C275 257.503 268.578 251.54 260.55 251.54C256.193 251.54 253.212 252.917 249.083 257.503C237.385 269.658 218.348 278.145 199.312 278.145C180.963 278.145 162.156 270.118 149.541 257.503C146.101 254.063 143.119 251.54 137.844 251.54C129.817 251.54 123.394 257.503 123.394 265.76C123.394 269.658 124.771 273.1 127.752 276.31C145.183 296.265 172.707 306.585 199.312 306.585ZM69.266 400.852H122.248C134.404 400.852 141.284 394.2 141.284 382.045C141.284 369.888 134.404 363.237 122.248 363.237H70.6422C49.5413 363.237 37.844 351.998 37.844 329.98V279.522C37.844 267.365 30.9633 260.485 18.8073 260.485C6.65138 260.485 0 267.365 0 279.522V332.503C0 377.917 23.3945 400.852 69.266 400.852ZM277.982 400.852H330.963C376.835 400.852 400 377.917 400 332.503V279.522C400 267.365 393.348 260.485 381.193 260.485C368.807 260.485 362.385 267.365 362.385 279.522V329.98C362.385 351.998 350.458 363.237 329.587 363.237H277.982C265.597 363.237 258.715 369.888 258.715 382.045C258.715 394.2 265.597 400.852 277.982 400.852Z" fill="#212121"/>
</g>
<defs>
<clipPath id="clip0_280_278">
<rect width="400" height="400" fill="white" transform="translate(0 0.851562)"/>
</clipPath>
</defs>
</svg>
