<svg width="832" height="828" viewBox="0 0 832 828" fill="none" xmlns="http://www.w3.org/2000/svg">
<path d="M475.2 53.6021C473.622 53.3383 472.245 52.7229 471.068 51.7557C469.931 50.7951 469.077 49.5979 468.505 48.1641C467.973 46.7369 467.842 45.2145 468.113 43.5969C468.376 42.0188 468.969 40.6578 469.89 39.514C470.857 38.3373 472.054 37.483 473.482 36.951C474.909 36.419 476.431 36.2881 478.049 36.5585C479.706 36.8354 481.103 37.4541 482.24 38.4147C483.423 39.3425 484.261 40.5166 484.754 41.9373C485.293 43.325 485.423 44.8474 485.146 46.5045C484.87 48.1615 484.228 49.575 483.221 50.7451C482.261 51.8823 481.067 52.7169 479.639 53.2489C478.219 53.7415 476.739 53.8592 475.2 53.6021Z" fill="#212121"/>
<path d="M550.802 94.5226L568.892 56.8844L575.598 60.1073L574.038 63.352L575.012 63.8199C576.127 63.0689 577.524 62.6088 579.203 62.4395C580.9 62.2341 582.956 62.7119 585.371 63.8728C587.534 64.9125 589.275 66.415 590.594 68.3803C591.93 70.3095 592.663 72.5702 592.793 75.1623C592.923 77.7544 592.286 80.5106 590.883 83.4308L590.467 84.296C589.063 87.2163 587.309 89.4353 585.204 90.9531C583.098 92.4709 580.867 93.3287 578.508 93.5265C576.167 93.6883 573.915 93.2493 571.752 92.2097C570.129 91.4299 568.855 90.5732 567.928 89.6394C567.019 88.7591 566.361 87.8659 565.954 86.9598C565.599 86.035 565.371 85.1709 565.269 84.3674L564.296 83.8995L557.616 97.7976L550.802 94.5226ZM572.556 85.2734C574.683 86.2958 576.752 86.4692 578.763 85.7937C580.827 85.0995 582.484 83.4546 583.731 80.8588L583.991 80.3181C585.239 77.7223 585.48 75.4196 584.715 73.4099C583.968 71.3641 582.548 69.8387 580.457 68.8337C578.366 67.8287 576.288 67.6733 574.224 68.3675C572.177 69.0256 570.529 70.6525 569.282 73.2483L569.022 73.7891C567.774 76.3848 567.524 78.7056 568.272 80.7513C569.037 82.761 570.465 84.2684 572.556 85.2734Z" fill="#212121"/>
<path d="M612.166 114.202L629.129 89.7493L635.242 93.9899L633.327 96.7507L634.214 97.3663C635.259 96.6311 636.353 96.3184 637.493 96.4283C638.667 96.5609 639.813 97.0148 640.93 97.79L643.888 99.8419L640.058 105.363L637.001 103.243C635.424 102.149 633.829 101.675 632.217 101.823C630.629 101.938 629.23 102.867 628.022 104.608L618.378 118.511L612.166 114.202Z" fill="#212121"/>
<path d="M660.889 154.127C658.754 152.077 657.25 149.802 656.379 147.302C655.507 144.802 655.37 142.259 655.968 139.672C656.566 137.086 657.972 134.638 660.188 132.329L660.853 131.637C663.069 129.328 665.457 127.822 668.017 127.119C670.577 126.416 673.124 126.449 675.658 127.217C678.191 127.986 680.526 129.395 682.661 131.445C684.796 133.495 686.3 135.77 687.172 138.27C688.043 140.769 688.18 143.313 687.582 145.899C686.985 148.486 685.578 150.934 683.362 153.242L682.697 153.935C680.481 156.243 678.093 157.749 675.533 158.452C672.973 159.155 670.426 159.123 667.893 158.354C665.359 157.586 663.025 156.177 660.889 154.127ZM665.543 149.279C667.217 150.885 669.114 151.681 671.236 151.666C673.385 151.622 675.429 150.59 677.368 148.57L677.783 148.137C679.722 146.117 680.656 144.047 680.584 141.927C680.569 139.805 679.71 137.927 678.008 136.293C676.334 134.686 674.422 133.905 672.273 133.949C670.152 133.964 668.122 134.982 666.183 137.002L665.767 137.435C663.828 139.455 662.881 141.539 662.925 143.688C662.996 145.809 663.869 147.672 665.543 149.279Z" fill="#212121"/>
<path d="M698.087 194.066L716.945 180.01L712.427 173.949L717.43 170.219L721.948 176.281L726.374 172.982C728.009 171.763 729.667 171.276 731.346 171.521C733.081 171.774 734.535 172.686 735.706 174.258L740.367 180.512L735.364 184.241L732.281 180.104C731.611 179.206 730.795 179.115 729.833 179.832L726.466 182.342L731.127 188.596L726.124 192.325L721.463 186.072L702.605 200.128L698.087 194.066Z" fill="#212121"/>
<path d="M731.015 247.161C729.643 244.539 728.977 241.93 729.019 239.335C729.115 236.757 729.876 234.372 731.302 232.181C732.783 230.006 734.906 228.196 737.67 226.75L738.308 226.416C741.072 224.969 743.752 224.267 746.347 224.308C748.978 224.331 751.361 225.048 753.499 226.458C755.671 227.849 757.444 229.856 758.816 232.478C760.17 235.066 760.763 237.622 760.595 240.148C760.462 242.655 759.646 244.978 758.147 247.117C756.683 249.237 754.604 251.002 751.911 252.412L749.625 253.608L739.583 234.417C737.812 235.433 736.694 236.876 736.227 238.746C735.761 240.615 736.01 242.471 736.974 244.314C737.957 246.192 739.088 247.361 740.367 247.821C741.645 248.28 742.902 248.481 744.135 248.422L744.13 255.4C742.948 255.386 741.558 255.188 739.959 254.806C738.413 254.441 736.843 253.683 735.247 252.531C733.687 251.361 732.276 249.571 731.015 247.161ZM744.608 231.855L751.061 244.188C752.511 243.249 753.409 241.989 753.756 240.408C754.121 238.863 753.849 237.222 752.941 235.485C751.995 233.678 750.783 232.483 749.305 231.902C747.827 231.321 746.261 231.305 744.608 231.855Z" fill="#212121"/>
<path d="M753.432 300.128C752.223 296.441 752.031 293.157 752.855 290.277C753.679 287.397 755.492 285.224 758.295 283.758L762.174 289.811C760.93 290.514 760.028 291.293 759.468 292.151C758.919 293.046 758.623 294.006 758.58 295.03C758.588 296.08 758.772 297.156 759.134 298.259C759.682 299.931 760.372 301.073 761.204 301.684C762.073 302.283 762.945 302.439 763.82 302.153C764.694 301.866 765.234 301.268 765.441 300.358C765.686 299.436 765.687 298.089 765.443 296.317L765.204 294.627C764.937 292.526 764.858 290.552 764.968 288.706C765.117 286.847 765.618 285.231 766.472 283.856C767.327 282.482 768.685 281.489 770.548 280.879C773.36 279.957 775.844 280.279 778 281.846C780.193 283.4 781.838 285.849 782.934 289.194C783.968 292.349 784.125 295.202 783.404 297.754C782.683 300.305 781.288 302.278 779.219 303.672L774.98 297.674C776.324 296.896 777.145 295.933 777.442 294.783C777.751 293.671 777.681 292.431 777.233 291.063C776.784 289.695 776.194 288.73 775.463 288.17C774.771 287.597 774.006 287.448 773.17 287.722C772.258 288.021 771.698 288.626 771.491 289.535C771.322 290.433 771.336 291.565 771.531 292.932L771.769 294.622C772.087 296.875 772.203 298.963 772.118 300.885C772.083 302.833 771.638 304.494 770.783 305.868C769.98 307.268 768.589 308.292 766.613 308.94C763.648 309.912 760.993 309.583 758.649 307.952C756.355 306.347 754.616 303.739 753.432 300.128Z" fill="#212121"/>
<path d="M767.21 357.214C766.625 353.378 766.975 350.108 768.262 347.403C769.549 344.698 771.695 342.853 774.701 341.868L777.53 348.477C776.188 348.965 775.17 349.586 774.476 350.339C773.788 351.132 773.338 352.03 773.127 353.033C772.962 354.07 772.966 355.162 773.141 356.309C773.407 358.048 773.899 359.288 774.619 360.028C775.379 360.762 776.213 361.06 777.123 360.921C778.032 360.782 778.664 360.281 779.018 359.418C779.411 358.548 779.633 357.22 779.684 355.432L779.727 353.726C779.809 351.609 780.056 349.649 780.469 347.846C780.921 346.037 781.682 344.525 782.751 343.31C783.819 342.095 785.323 341.34 787.26 341.044C790.186 340.598 792.583 341.324 794.451 343.224C796.359 345.118 797.578 347.805 798.109 351.285C798.61 354.567 798.295 357.407 797.164 359.805C796.032 362.203 794.332 363.919 792.062 364.953L788.868 358.34C790.322 357.794 791.29 356.979 791.772 355.893C792.26 354.848 792.395 353.613 792.178 352.19C791.961 350.766 791.538 349.718 790.909 349.045C790.32 348.366 789.59 348.093 788.72 348.226C787.771 348.371 787.12 348.875 786.766 349.738C786.452 350.595 786.279 351.714 786.247 353.095L786.203 354.801C786.146 357.076 785.917 359.154 785.516 361.036C785.161 362.951 784.449 364.517 783.38 365.732C782.357 366.981 780.817 367.762 778.761 368.076C775.676 368.546 773.112 367.784 771.068 365.79C769.069 363.829 767.783 360.97 767.21 357.214Z" fill="#212121"/>
<path d="M771.373 417.532C771.435 414.572 772.09 411.925 773.339 409.591C774.588 407.256 776.366 405.433 778.674 404.121C780.981 402.808 783.735 402.185 786.934 402.252L787.894 402.272C791.093 402.338 793.819 403.075 796.07 404.482C798.321 405.889 800.022 407.785 801.173 410.17C802.323 412.554 802.868 415.226 802.806 418.185C802.745 421.145 802.09 423.792 800.841 426.126C799.592 428.461 797.814 430.284 795.506 431.596C793.198 432.909 790.445 433.532 787.245 433.465L786.285 433.445C783.086 433.379 780.361 432.642 778.11 431.235C775.858 429.828 774.158 427.932 773.007 425.547C771.856 423.163 771.312 420.491 771.373 417.532ZM778.092 417.671C778.043 419.991 778.743 421.926 780.191 423.476C781.68 425.028 783.823 425.832 786.623 425.891L787.223 425.903C790.022 425.961 792.177 425.246 793.689 423.757C795.239 422.309 796.039 420.405 796.088 418.046C796.136 415.726 795.416 413.791 793.928 412.239C792.48 410.689 790.356 409.885 787.557 409.826L786.957 409.814C784.158 409.756 781.982 410.471 780.431 411.959C778.92 413.448 778.14 415.352 778.092 417.671Z" fill="#212121"/>
<path d="M768.032 467.149L797.316 472.455L795.989 479.776L792.683 479.177L792.49 480.239C793.593 480.886 794.33 481.752 794.703 482.835C795.069 483.959 795.13 485.189 794.888 486.528L794.246 490.07L787.634 488.872L788.297 485.211C788.639 483.322 788.409 481.675 787.607 480.269C786.844 478.871 785.42 477.983 783.333 477.605L766.685 474.588L768.032 467.149Z" fill="#212121"/>
<path d="M735.006 568.536C736.289 565.958 737.994 563.88 740.119 562.301C742.227 560.759 744.604 559.886 747.252 559.684C749.899 559.482 752.673 560.103 755.573 561.546L756.325 561.921C759.226 563.364 761.394 565.202 762.83 567.435C764.265 569.669 765.004 572.091 765.044 574.703C765.067 577.35 764.438 579.963 763.155 582.542C761.89 585.084 760.355 587.046 758.551 588.427C756.747 589.808 754.781 590.662 752.653 590.988C750.543 591.368 748.414 591.247 746.266 590.625L748.13 583.376C749.276 583.767 750.403 583.926 751.512 583.852C752.621 583.779 753.658 583.401 754.622 582.719C755.569 582.074 756.381 581.07 757.058 579.709C757.735 578.348 758.045 576.961 757.989 575.548C757.951 574.189 757.501 572.893 756.64 571.66C755.797 570.481 754.534 569.473 752.85 568.636L752.313 568.368C750.63 567.531 749.046 567.123 747.561 567.143C746.095 567.218 744.79 567.641 743.646 568.412C742.521 569.237 741.62 570.33 740.943 571.691C739.927 573.732 739.68 575.531 740.202 577.086C740.742 578.695 741.8 580.07 743.376 581.212L738.558 586.99C736.891 585.581 735.555 583.911 734.55 581.981C733.562 580.104 733.075 578.03 733.089 575.758C733.102 573.486 733.741 571.079 735.006 568.536Z" fill="#212121"/>
<path d="M701.856 623.035C703.625 620.662 705.696 618.889 708.069 617.714C710.442 616.54 712.949 616.089 715.59 616.362C718.23 616.635 720.833 617.728 723.399 619.641L724.168 620.215C726.733 622.128 728.523 624.311 729.538 626.764C730.552 629.218 730.835 631.749 730.386 634.358C729.937 636.967 728.828 639.458 727.059 641.831C725.289 644.204 723.218 645.977 720.845 647.152C718.472 648.326 715.965 648.777 713.325 648.504C710.684 648.231 708.081 647.138 705.516 645.225L704.746 644.651C702.181 642.738 700.391 640.555 699.376 638.102C698.362 635.649 698.079 633.117 698.528 630.508C698.977 627.899 700.086 625.408 701.856 623.035ZM707.242 627.053C705.856 628.912 705.301 630.894 705.579 632.997C705.888 635.124 707.165 637.025 709.41 638.699L709.891 639.057C712.136 640.731 714.305 641.402 716.4 641.068C718.504 640.79 720.261 639.705 721.672 637.814C723.059 635.954 723.597 633.96 723.287 631.833C723.01 629.73 721.749 627.841 719.504 626.167L719.023 625.809C716.779 624.135 714.593 623.453 712.466 623.762C710.371 624.096 708.629 625.193 707.242 627.053Z" fill="#212121"/>
<path d="M670.305 661.466L691.055 682.799L685.722 687.986L683.379 685.578L682.605 686.331C683.126 687.498 683.223 688.63 682.897 689.729C682.542 690.856 681.877 691.893 680.902 692.841L678.322 695.351L673.636 690.534L676.303 687.941C677.679 686.602 678.449 685.127 678.613 683.517C678.804 681.936 678.161 680.385 676.683 678.866L664.885 666.737L670.305 661.466Z" fill="#212121"/>
<path d="M633.59 694.047L651.214 718.027L645.219 722.433L643.229 719.726L642.359 720.365C642.715 721.593 642.656 722.728 642.182 723.772C641.675 724.839 640.874 725.775 639.778 726.581L636.877 728.712L632.898 723.297L635.895 721.094C637.443 719.957 638.408 718.603 638.791 717.03C639.198 715.49 638.774 713.866 637.518 712.158L627.499 698.524L633.59 694.047Z" fill="#212121"/>
<path d="M580.518 726.919C583.141 725.546 585.75 724.881 588.345 724.922C590.923 725.017 593.308 725.778 595.499 727.204C597.673 728.685 599.484 730.807 600.931 733.571L601.265 734.209C602.712 736.973 603.415 739.653 603.373 742.248C603.351 744.879 602.635 747.263 601.225 749.4C599.834 751.573 597.827 753.346 595.205 754.718C592.618 756.072 590.062 756.666 587.536 756.498C585.028 756.366 582.705 755.55 580.566 754.051C578.446 752.587 576.681 750.509 575.271 747.816L574.074 745.53L593.264 735.485C592.247 733.715 590.804 732.597 588.935 732.13C587.065 731.664 585.209 731.913 583.367 732.878C581.488 733.861 580.319 734.992 579.86 736.271C579.401 737.55 579.201 738.806 579.259 740.039L572.281 740.035C572.295 738.854 572.493 737.463 572.875 735.864C573.24 734.318 573.998 732.748 575.149 731.152C576.319 729.591 578.109 728.181 580.518 726.919ZM595.827 740.51L583.494 746.965C584.433 748.415 585.694 749.313 587.274 749.659C588.82 750.024 590.461 749.752 592.197 748.843C594.005 747.897 595.199 746.685 595.78 745.207C596.361 743.729 596.376 742.163 595.827 740.51Z" fill="#212121"/>
<path d="M530.516 748.372C532.53 747.712 534.448 747.462 536.269 747.622C538.102 747.821 539.712 748.43 541.098 749.448C542.459 750.518 543.457 752.021 544.093 753.96C544.729 755.898 544.802 757.663 544.314 759.255C543.8 760.897 542.832 762.309 541.409 763.491C539.961 764.723 538.173 765.689 536.045 766.387L528.291 768.929L528.814 770.526C529.251 771.856 530.024 772.802 531.134 773.364C532.257 773.964 533.731 773.965 535.555 773.367C537.342 772.781 538.535 771.926 539.135 770.804C539.747 769.719 539.975 768.486 539.817 767.107L547.16 767.162C547.177 768.756 546.885 770.304 546.283 771.806C545.656 773.359 544.624 774.77 543.189 776.041C541.728 777.362 539.781 778.422 537.348 779.219C533.624 780.441 530.372 780.476 527.595 779.324C524.818 778.172 522.85 775.828 521.691 772.294L518.232 761.746C517.858 760.606 517.139 760.21 516.074 760.559L513.794 761.307L511.85 755.378L516.639 753.807C518.045 753.346 519.316 753.308 520.453 753.693C521.589 754.078 522.345 754.841 522.719 755.981L522.737 756.038L523.821 755.683C523.823 755.177 523.966 754.457 524.248 753.522C524.544 752.625 525.168 751.705 526.121 750.761C527.075 749.817 528.539 749.021 530.516 748.372ZM531.169 754.599C529.154 755.26 527.701 756.347 526.808 757.86C525.889 759.424 525.736 761.138 526.346 763L526.533 763.57L533.774 761.196C535.104 760.759 536.056 760.132 536.629 759.312C537.202 758.493 537.321 757.57 536.984 756.544C536.648 755.517 535.974 754.812 534.964 754.428C533.954 754.043 532.689 754.1 531.169 754.599Z" fill="#212121"/>
<path d="M431.355 774.509C432.954 774.443 434.428 774.762 435.779 775.467C437.089 776.174 438.171 777.17 439.025 778.456C439.839 779.743 440.28 781.206 440.347 782.845C440.414 784.443 440.113 785.897 439.447 787.206C438.742 788.556 437.746 789.638 436.458 790.452C435.171 791.266 433.708 791.707 432.069 791.774C430.391 791.844 428.896 791.525 427.586 790.819C426.237 790.154 425.176 789.177 424.402 787.888C423.59 786.64 423.149 785.177 423.08 783.499C423.01 781.82 423.348 780.305 424.093 778.953C424.799 777.643 425.796 776.581 427.084 775.767C428.373 774.993 429.797 774.574 431.355 774.509Z" fill="#212121"/>
<path d="M341.248 760.336L335.947 783.25L343.313 784.954L341.906 791.034L334.541 789.33L333.297 794.708C332.837 796.695 331.887 798.138 330.448 799.037C328.96 799.966 327.261 800.209 325.352 799.767L317.753 798.01L319.159 791.93L324.186 793.093C325.277 793.345 325.958 792.887 326.229 791.718L327.175 787.626L319.576 785.868L320.982 779.789L328.582 781.547L333.883 758.632L341.248 760.336Z" fill="#212121"/>
<path d="M294.036 746.819L283.219 774.544L276.288 771.84L277.509 768.709L276.503 768.317C275.657 769.275 274.667 769.833 273.532 769.991C272.359 770.135 271.139 769.96 269.872 769.465L266.519 768.157L268.961 761.896L272.427 763.248C274.215 763.946 275.876 764.036 277.41 763.518C278.928 763.037 280.073 761.809 280.843 759.834L286.994 744.071L294.036 746.819Z" fill="#212121"/>
<path d="M237.386 719.309C239.94 720.807 241.93 722.67 243.359 724.899C244.788 727.128 245.512 729.57 245.531 732.225C245.551 734.88 244.751 737.587 243.132 740.347L242.647 741.175C241.028 743.936 239.055 745.955 236.728 747.234C234.402 748.512 231.917 749.072 229.274 748.913C226.632 748.755 224.033 747.926 221.48 746.429C218.927 744.931 216.936 743.068 215.507 740.839C214.079 738.61 213.355 736.168 213.335 733.513C213.316 730.859 214.115 728.151 215.734 725.391L216.22 724.563C217.839 721.802 219.812 719.783 222.138 718.504C224.465 717.226 226.949 716.666 229.592 716.825C232.235 716.984 234.833 717.812 237.386 719.309ZM233.987 725.106C231.985 723.932 229.955 723.599 227.895 724.107C225.815 724.649 224.066 726.128 222.65 728.543L222.346 729.06C220.93 731.476 220.503 733.706 221.065 735.752C221.573 737.811 222.844 739.438 224.88 740.632C226.881 741.806 228.922 742.122 231.002 741.58C233.062 741.072 234.8 739.611 236.217 737.195L236.52 736.678C237.937 734.263 238.374 732.015 237.832 729.935C237.269 727.889 235.988 726.28 233.987 725.106Z" fill="#212121"/>
<path d="M195.643 692.454L176.254 715.032L170.61 710.185L173.151 707.226L172.331 706.522C171.289 706.999 169.968 707.156 168.367 706.994C166.741 706.862 164.911 705.923 162.877 704.177C161.117 702.666 159.937 700.94 159.335 699C158.678 697.065 158.597 695.071 159.094 693.019C159.564 690.998 160.607 689.046 162.223 687.165L173.793 673.691L179.529 678.617L168.349 691.635C166.89 693.334 166.22 694.974 166.34 696.553C166.43 698.107 167.248 699.548 168.796 700.877C170.556 702.388 172.43 702.969 174.417 702.62C176.379 702.3 178.258 701.094 180.057 699L189.907 687.529L195.643 692.454Z" fill="#212121"/>
<path d="M141.94 639.803C143.197 641.307 143.762 642.92 143.636 644.641C143.454 646.357 142.58 647.869 141.014 649.177L128.12 659.947L132.89 665.657L128.101 669.657L123.331 663.947L116.24 669.871L111.393 664.069L118.485 658.145L113.253 651.882L118.043 647.882L123.274 654.145L135.154 644.221C136.075 643.451 136.177 642.637 135.459 641.777L131.766 637.357L136.555 633.356L141.94 639.803Z" fill="#212121"/>
<path d="M106.458 611.844L100.607 615.386L91.4096 600.193L97.261 596.651L106.458 611.844Z" fill="#212121"/>
<path d="M86.3325 545.368C87.4466 548.11 87.8584 550.771 87.5678 553.35C87.225 555.907 86.2384 558.208 84.6079 560.252C82.9252 562.274 80.6386 563.872 77.7481 565.046L77.081 565.317C74.1905 566.492 71.4557 566.934 68.8766 566.643C66.2605 566.367 63.9565 565.425 61.9645 563.817C59.9355 562.223 58.364 560.056 57.2498 557.313C56.1507 554.608 55.8061 552.006 56.216 549.508C56.5889 547.025 57.6241 544.791 59.3218 542.806C60.9825 540.837 63.221 539.279 66.0375 538.135L68.4277 537.164L76.5805 557.231C78.4404 556.389 79.6923 555.06 80.3361 553.244C80.98 551.428 80.9104 549.557 80.1275 547.63C79.3295 545.666 78.3162 544.394 77.0874 543.814C75.8587 543.233 74.6277 542.913 73.3943 542.853L74.0699 535.908C75.2442 536.035 76.609 536.366 78.1643 536.9C79.6675 537.412 81.158 538.317 82.6357 539.617C84.0764 540.931 85.3087 542.848 86.3325 545.368ZM71.3327 559.298L66.0932 546.402C64.56 547.198 63.5449 548.366 63.0482 549.906C62.5363 551.409 62.6493 553.069 63.387 554.885C64.1549 556.775 65.2464 558.08 66.6616 558.8C68.0768 559.52 69.6338 559.686 71.3327 559.298Z" fill="#212121"/>
<path d="M70.9081 502.798L41.8249 509.109L40.2472 501.838L44.0585 501.011L43.8295 499.956C42.7113 499.707 41.5627 499.035 40.3837 497.94C39.1657 496.854 38.2725 495.001 37.7041 492.382C37.2121 490.115 37.3115 488.027 38.0022 486.117C38.6453 484.176 39.7837 482.537 41.4173 481.201C43.0119 479.872 45.021 478.945 47.4446 478.419L64.8007 474.653L66.4039 482.041L49.6341 485.68C47.4451 486.155 45.9221 487.059 45.065 488.391C44.1995 489.683 43.9831 491.327 44.4157 493.32C44.9077 495.588 46.0517 497.181 47.8476 498.101C49.6045 499.03 51.8315 499.202 54.5288 498.616L69.3049 495.41L70.9081 502.798Z" fill="#212121"/>
<path d="M60.631 427.864C60.7125 430.223 60.2096 432.462 59.1222 434.58C57.9935 436.661 56.3112 438.36 54.0754 439.678C51.8396 440.996 49.1027 441.711 45.8647 441.823L44.9052 441.856C41.6672 441.968 38.8874 441.444 36.5659 440.284C34.2444 439.123 32.4687 437.544 31.2389 435.545C29.9691 433.548 29.2927 431.35 29.2098 428.951C29.1475 427.152 29.3156 425.645 29.7138 424.431C30.0707 423.178 30.5558 422.16 31.1692 421.379C31.7825 420.597 32.4421 419.994 33.1478 419.569L33.1105 418.49L17.4598 419.031L17.1985 411.476L59.1734 410.024L59.4306 417.459L55.8327 417.584L55.8701 418.663C57.0129 419.304 58.0689 420.328 59.0382 421.736C60.006 423.103 60.5369 425.146 60.631 427.864ZM53.9561 425.814C53.8759 423.495 53.0693 421.582 51.5362 420.074C49.9632 418.567 47.7376 417.864 44.8593 417.963L44.2597 417.984C41.3814 418.084 39.2296 418.939 37.8045 420.549C36.3379 422.121 35.6454 424.086 35.727 426.444C35.8072 428.763 36.6338 430.675 38.2068 432.182C39.7399 433.69 41.9455 434.394 44.8238 434.294L45.4234 434.274C48.3017 434.174 50.4734 433.319 51.9386 431.707C53.3638 430.097 54.0363 428.132 53.9561 425.814Z" fill="#212121"/>
<path d="M70.6655 322.909C70.0075 325.3 69.0049 327.285 67.6576 328.864C66.2824 330.394 64.647 331.438 62.7512 331.995C60.8169 332.541 58.7121 332.501 56.4367 331.875C54.7783 331.419 53.4117 330.731 52.3367 329.813C51.2724 328.857 50.4786 327.746 49.9552 326.482C49.4319 325.218 49.1525 323.896 49.1171 322.518L48.3072 322.295C47.198 324.064 45.7602 325.369 43.9936 326.211C42.227 327.052 40.1675 327.149 37.8149 326.502C35.4624 325.854 33.6195 324.787 32.2862 323.3C30.953 321.813 30.1255 320.071 29.8038 318.074C29.4542 316.028 29.5977 313.848 30.2345 311.534L31.9697 305.228L37.986 306.884L36.617 311.859C36.1394 313.595 36.2042 315.168 36.8114 316.58C37.4293 317.953 38.6445 318.889 40.4571 319.388C41.7298 319.738 42.8454 319.755 43.8038 319.438C44.7729 319.082 45.5724 318.514 46.2021 317.733C46.8425 316.913 47.3113 315.964 47.6084 314.884L49.1526 309.272L43.9461 307.84L45.9519 300.551L51.1584 301.983L52.623 296.661L58.6393 298.317L57.1748 303.639L74.6454 308.446L70.6655 322.909ZM65.0153 319.923L66.6232 314.08L55.1689 310.928L53.5611 316.771C53.0941 318.468 53.1835 320.027 53.8293 321.45C54.4751 322.872 55.7429 323.843 57.6326 324.363C59.5609 324.894 61.1717 324.694 62.4648 323.764C63.73 322.784 64.5802 321.504 65.0153 319.923Z" fill="#212121"/>
<path d="M114.755 222.608C113.478 224.592 111.789 226.146 109.688 227.267C107.575 228.334 105.225 228.772 102.636 228.581C100.048 228.39 97.3912 227.419 94.6663 225.666L93.859 225.146C91.1341 223.393 89.1483 221.379 87.9017 219.102C86.6551 216.826 86.0958 214.516 86.2239 212.173C86.3184 209.808 87.0148 207.616 88.3133 205.598C89.2871 204.084 90.2836 202.942 91.3029 202.171C92.3102 201.344 93.2885 200.784 94.2379 200.491C95.1874 200.199 96.073 200.079 96.895 200.132L97.4793 199.223L84.3091 190.751L88.3992 184.393L123.722 207.116L119.696 213.373L116.669 211.425L116.084 212.334C116.659 213.511 116.943 214.955 116.938 216.664C116.954 218.339 116.226 220.32 114.755 222.608ZM110.437 217.119C111.693 215.168 112.12 213.136 111.719 211.024C111.285 208.889 109.857 207.043 107.434 205.485L106.93 205.16C104.508 203.602 102.252 203.079 100.164 203.59C98.063 204.046 96.3743 205.266 95.0975 207.251C93.8423 209.202 93.4319 211.245 93.8662 213.379C94.2669 215.492 95.6783 217.328 98.1005 218.886L98.6051 219.21C101.027 220.768 103.299 221.303 105.422 220.813C107.51 220.302 109.182 219.071 110.437 217.119Z" fill="#212121"/>
<path d="M154.38 170.821C152.375 172.999 150.145 174.507 147.689 175.345C145.23 176.126 142.729 176.216 140.184 175.614C137.637 174.956 135.216 173.57 132.92 171.457L132.39 170.97C130.094 168.857 128.527 166.573 127.689 164.116C126.822 161.633 126.69 159.147 127.294 156.659C127.869 154.144 129.159 151.798 131.163 149.619C133.141 147.471 135.346 146.049 137.78 145.353C140.185 144.63 142.647 144.613 145.167 145.301C147.657 145.962 150.02 147.321 152.257 149.38L154.156 151.127L139.489 167.066C141.044 168.388 142.781 168.953 144.698 168.76C146.615 168.567 148.277 167.705 149.686 166.175C151.121 164.615 151.839 163.155 151.839 161.797C151.839 160.438 151.603 159.188 151.131 158.047L157.7 155.693C158.086 156.809 158.37 158.185 158.551 159.819C158.73 161.397 158.547 163.131 158.003 165.022C157.429 166.886 156.222 168.819 154.38 170.821ZM135.38 163.202L144.805 152.959C143.431 151.912 141.942 151.493 140.337 151.701C138.759 151.88 137.307 152.69 135.979 154.133C134.598 155.634 133.884 157.178 133.836 158.765C133.789 160.353 134.303 161.832 135.38 163.202Z" fill="#212121"/>
<path d="M196.666 131.806C193.605 134.19 190.58 135.481 187.591 135.679C184.602 135.877 181.944 134.905 179.617 132.763L184.002 127.067C185.083 127.999 186.122 128.584 187.119 128.822C188.147 129.036 189.15 128.99 190.129 128.684C191.114 128.322 192.065 127.785 192.98 127.072C194.369 125.991 195.21 124.955 195.504 123.966C195.774 122.945 195.626 122.071 195.061 121.346C194.495 120.62 193.75 120.313 192.824 120.426C191.873 120.507 190.605 120.962 189.02 121.791L187.51 122.586C185.623 123.549 183.792 124.29 182.017 124.81C180.218 125.299 178.527 125.373 176.944 125.034C175.362 124.694 173.969 123.752 172.765 122.205C170.946 119.87 170.41 117.423 171.156 114.865C171.877 112.275 173.626 109.899 176.403 107.737C179.023 105.697 181.655 104.585 184.3 104.401C186.945 104.218 189.274 104.864 191.285 106.339L187.073 112.357C185.886 111.354 184.702 110.907 183.52 111.017C182.369 111.101 181.226 111.586 180.09 112.471C178.953 113.356 178.245 114.237 177.965 115.114C177.66 115.959 177.778 116.729 178.319 117.424C178.909 118.181 179.667 118.504 180.593 118.391C181.494 118.246 182.555 117.851 183.776 117.205L185.286 116.41C187.299 115.349 189.224 114.534 191.062 113.965C192.907 113.339 194.621 113.196 196.204 113.536C197.793 113.819 199.227 114.781 200.505 116.422C202.421 118.884 203.009 121.494 202.266 124.252C201.531 126.953 199.664 129.472 196.666 131.806Z" fill="#212121"/>
<path d="M234.665 104.811L219.957 78.9396L226.53 75.2034L241.237 101.075L234.665 104.811ZM221.524 74.0462C220.341 74.7183 219.115 74.9091 217.846 74.6185C216.611 74.3081 215.638 73.527 214.926 72.2752C214.215 71.0233 214.041 69.7876 214.406 68.5679C214.806 67.3284 215.597 66.3726 216.779 65.7005C217.996 65.0086 219.222 64.8178 220.457 65.1282C221.692 65.4385 222.665 66.2196 223.376 67.4715C224.088 68.7233 224.262 69.9591 223.897 71.1788C223.532 72.3985 222.741 73.3543 221.524 74.0462Z" fill="#212121"/>
<path d="M267.135 71.2711L266.792 70.3745C265.677 67.4605 265.305 64.7545 265.678 62.2567C266.035 59.7215 266.96 57.5478 268.451 55.7354C269.965 53.8715 271.861 52.5036 274.14 51.6318C276.68 50.66 278.776 50.3722 280.427 50.7687C282.077 51.1651 283.387 51.7346 284.356 52.4773L285.365 52.0914L284.079 48.7291L291.028 46.0708L303.547 78.7978C304.276 80.7032 304.295 82.4306 303.603 83.9802C302.925 85.5671 301.652 86.7178 299.784 87.4324L281.179 94.5497L278.821 88.3854L294.96 82.2113C296.006 81.8112 296.315 81.0507 295.886 79.9299L293.121 72.7008L292.112 73.0867C291.967 73.8274 291.68 74.6439 291.25 75.5362C290.806 76.3912 290.103 77.2386 289.139 78.0783C288.176 78.918 286.835 79.6666 285.116 80.324C282.837 81.1958 280.519 81.4616 278.162 81.1213C275.828 80.7294 273.689 79.7276 271.744 78.1159C269.786 76.4668 268.249 74.1852 267.135 71.2711ZM284.775 73.3879C286.942 72.559 288.49 71.1747 289.418 69.235C290.346 67.2953 290.332 65.0739 289.374 62.5708L289.16 62.0104C288.188 59.47 286.716 57.806 284.745 57.0184C282.796 56.1792 280.72 56.1812 278.515 57.0244C276.349 57.8533 274.801 59.2376 273.873 61.1773C272.93 63.0796 272.945 65.301 273.917 67.8415L274.131 68.4019C275.089 70.905 276.56 72.569 278.546 73.3939C280.532 74.2188 282.608 74.2168 284.775 73.3879Z" fill="#212121"/>
<path d="M334.331 64.4674L328.819 35.2221L336.131 33.8443L336.853 37.6769L337.914 37.4769C338.193 36.366 338.896 35.2363 340.023 34.0877C341.143 32.8999 343.019 32.0578 345.653 31.5615C347.933 31.1319 350.018 31.2885 351.908 32.0313C353.83 32.7274 355.437 33.9103 356.728 35.58C358.013 37.2104 358.884 39.2441 359.344 41.6813L362.632 59.1341L355.203 60.5341L352.025 43.6709C351.611 41.4696 350.749 39.9224 349.441 39.0291C348.172 38.1285 346.536 37.8671 344.531 38.2449C342.251 38.6745 340.627 39.7743 339.658 41.5444C338.681 43.2751 338.449 45.4966 338.96 48.2089L341.76 63.0674L334.331 64.4674Z" fill="#212121"/>
</svg>
